<svg width="1400" height="980" viewBox="0 0 1400 980" fill="none" xmlns="http://www.w3.org/2000/svg">
  <rect width="1400" height="980" fill="#100F12"/>
  <circle cx="1100" cy="130" r="380" fill="#F97316" opacity=".18"/>
  <circle cx="250" cy="870" r="300" fill="#8B5CF6" opacity=".12"/>
  <path d="M120 772C286 676 480 633 702 645C926 657 1098 585 1280 442" stroke="#F97316" stroke-width="3" opacity=".42"/>
  <path d="M120 696C310 615 496 587 682 612C880 638 1040 586 1280 372" stroke="#FBBF24" stroke-width="2" opacity=".28"/>
  <g filter="url(#shadow)">
    <rect x="126" y="132" width="488" height="316" rx="30" fill="#18171B" stroke="#FFFFFF" stroke-opacity=".1"/>
    <rect x="160" y="174" width="148" height="92" rx="18" fill="#F97316" opacity=".2"/>
    <rect x="334" y="174" width="244" height="18" rx="9" fill="#FFFFFF" opacity=".16"/>
    <rect x="334" y="214" width="178" height="14" rx="7" fill="#FFFFFF" opacity=".1"/>
    <rect x="160" y="308" width="418" height="16" rx="8" fill="#FFFFFF" opacity=".12"/>
    <rect x="160" y="350" width="280" height="16" rx="8" fill="#FFFFFF" opacity=".08"/>
    <rect x="160" y="390" width="356" height="16" rx="8" fill="#FFFFFF" opacity=".08"/>
  </g>
  <g filter="url(#shadow)">
    <rect x="705" y="108" width="450" height="520" rx="34" fill="#151519" stroke="#FFFFFF" stroke-opacity=".1"/>
    <rect x="744" y="156" width="118" height="118" rx="26" fill="#F97316" opacity=".22"/>
    <rect x="894" y="164" width="196" height="18" rx="9" fill="#FFFFFF" opacity=".14"/>
    <rect x="894" y="204" width="138" height="14" rx="7" fill="#FFFFFF" opacity=".08"/>
    <rect x="744" y="334" width="352" height="22" rx="11" fill="#FFFFFF" opacity=".1"/>
    <rect x="744" y="386" width="292" height="22" rx="11" fill="#FFFFFF" opacity=".08"/>
    <rect x="744" y="438" width="326" height="22" rx="11" fill="#FFFFFF" opacity=".08"/>
    <rect x="744" y="512" width="84" height="60" rx="16" fill="#F97316" opacity=".18"/>
    <rect x="854" y="512" width="84" height="60" rx="16" fill="#FBBF24" opacity=".16"/>
    <rect x="964" y="512" width="84" height="60" rx="16" fill="#8B5CF6" opacity=".16"/>
  </g>
  <g filter="url(#shadow)">
    <rect x="432" y="515" width="420" height="300" rx="32" fill="#17161A" stroke="#FFFFFF" stroke-opacity=".1"/>
    <rect x="472" y="560" width="332" height="18" rx="9" fill="#FFFFFF" opacity=".13"/>
    <rect x="472" y="614" width="110" height="110" rx="28" fill="#F97316" opacity=".22"/>
    <rect x="616" y="614" width="188" height="18" rx="9" fill="#FFFFFF" opacity=".11"/>
    <rect x="616" y="658" width="144" height="14" rx="7" fill="#FFFFFF" opacity=".08"/>
    <rect x="616" y="702" width="168" height="14" rx="7" fill="#FFFFFF" opacity=".08"/>
    <circle cx="787" cy="735" r="42" fill="#F97316" opacity=".18"/>
  </g>
  <defs>
    <filter id="shadow" x="66" y="48" width="1149" height="827" filterUnits="userSpaceOnUse" color-interpolation-filters="sRGB">
      <feDropShadow dx="0" dy="28" stdDeviation="32" flood-color="#000000" flood-opacity=".38"/>
    </filter>
  </defs>
</svg>
