<svg width="1400" height="980" viewBox="0 0 1400 980" fill="none" xmlns="http://www.w3.org/2000/svg">
  <rect width="1400" height="980" fill="#0B1114"/>
  <circle cx="1160" cy="160" r="330" fill="#06B6D4" opacity=".16"/>
  <circle cx="260" cy="760" r="340" fill="#10B981" opacity=".12"/>
  <path d="M160 506H1240" stroke="#06B6D4" stroke-width="3" stroke-dasharray="18 22" opacity=".28"/>
  <g filter="url(#shadow)">
    <rect x="138" y="236" width="292" height="492" rx="34" fill="#151A1D" stroke="#FFFFFF" stroke-opacity=".1"/>
    <rect x="178" y="286" width="96" height="96" rx="24" fill="#06B6D4" opacity=".22"/>
    <rect x="178" y="428" width="202" height="18" rx="9" fill="#FFFFFF" opacity=".13"/>
    <rect x="178" y="478" width="162" height="16" rx="8" fill="#FFFFFF" opacity=".08"/>
    <rect x="178" y="544" width="210" height="54" rx="18" fill="#06B6D4" opacity=".14"/>
    <rect x="178" y="626" width="170" height="54" rx="18" fill="#FFFFFF" opacity=".07"/>
  </g>
  <g filter="url(#shadow)">
    <rect x="520" y="160" width="360" height="640" rx="44" fill="#111719" stroke="#FFFFFF" stroke-opacity=".1"/>
    <rect x="570" y="218" width="260" height="18" rx="9" fill="#FFFFFF" opacity=".12"/>
    <rect x="570" y="292" width="260" height="130" rx="26" fill="#06B6D4" opacity=".18"/>
    <rect x="606" y="332" width="78" height="52" rx="16" fill="#FFFFFF" opacity=".1"/>
    <rect x="708" y="332" width="78" height="52" rx="16" fill="#FFFFFF" opacity=".08"/>
    <rect x="570" y="486" width="260" height="22" rx="11" fill="#FFFFFF" opacity=".12"/>
    <rect x="570" y="548" width="198" height="22" rx="11" fill="#FFFFFF" opacity=".08"/>
    <rect x="570" y="642" width="120" height="52" rx="26" fill="#06B6D4" opacity=".24"/>
  </g>
  <g filter="url(#shadow)">
    <rect x="970" y="284" width="292" height="396" rx="34" fill="#151A1D" stroke="#FFFFFF" stroke-opacity=".1"/>
    <circle cx="1054" cy="372" r="54" fill="#06B6D4" opacity=".2"/>
    <circle cx="1054" cy="372" r="24" fill="#06B6D4" opacity=".42"/>
    <rect x="1132" y="346" width="82" height="15" rx="7.5" fill="#FFFFFF" opacity=".12"/>
    <rect x="1132" y="384" width="110" height="13" rx="6.5" fill="#FFFFFF" opacity=".08"/>
    <rect x="1016" y="492" width="198" height="18" rx="9" fill="#FFFFFF" opacity=".11"/>
    <rect x="1016" y="548" width="158" height="18" rx="9" fill="#FFFFFF" opacity=".08"/>
    <rect x="1016" y="604" width="96" height="36" rx="18" fill="#06B6D4" opacity=".22"/>
  </g>
  <circle cx="476" cy="506" r="22" fill="#06B6D4" opacity=".65"/>
  <circle cx="924" cy="506" r="22" fill="#06B6D4" opacity=".65"/>
  <defs>
    <filter id="shadow" x="78" y="100" width="1244" height="760" filterUnits="userSpaceOnUse" color-interpolation-filters="sRGB">
      <feDropShadow dx="0" dy="28" stdDeviation="34" flood-color="#000000" flood-opacity=".38"/>
    </filter>
  </defs>
</svg>
